
<!--LOGO ANTIGUO DE LA PLANTILLA-->
<!--<svg xmlns="http://www.w3.org/2000/svg" fill="none" viewBox="0 0 128 128">
    <path d="M50.4 78.5a75.1 75.1 0 0 0-28.5 6.9l24.2-65.7c.7-2 1.9-3.2 3.4-3.2h29c1.5 0 2.7 1.2 3.4 3.2l24.2 65.7s-11.6-7-28.5-7L67 45.5c-.4-1.7-1.6-2.8-2.9-2.8-1.3 0-2.5 1.1-2.9 2.7L50.4 78.5Zm-1.1 28.2Zm-4.2-20.2c-2 6.6-.6 15.8 4.2 20.2a17.5 17.5 0 0 1 .2-.7 5.5 5.5 0 0 1 5.7-4.5c2.8.1 4.3 1.5 4.7 4.7.2 1.1.2 2.3.2 3.5v.4c0 2.7.7 5.2 2.2 7.4a13 13 0 0 0 5.7 4.9v-.3l-.2-.3c-1.8-5.6-.5-9.5 4.4-12.8l1.5-1a73 73 0 0 0 3.2-2.2 16 16 0 0 0 6.8-11.4c.3-2 .1-4-.6-6l-.8.6-1.6 1a37 37 0 0 1-22.4 2.7c-5-.7-9.7-2-13.2-6.2Z" />
    <style>
        path { fill: #000; }
        @media (prefers-color-scheme: dark) {
            path { fill: #FFF; }
        }
    </style>
</svg>-->

<?xml version="1.0" encoding="utf-8"?>
<!-- Generator: Adobe Illustrator 25.4.1, SVG Export Plug-In . SVG Version: 6.00 Build 0)  -->
<svg version="1.1" id="Capa_1" xmlns="http://www.w3.org/2000/svg" xmlns:xlink="http://www.w3.org/1999/xlink" x="0px" y="0px"
	 viewBox="0 0 174.9 172.4" style="enable-background:new 0 0 174.9 172.4;" xml:space="preserve">
<style type="text/css">
	.st0{fill:#0077B3;}
</style>
<g>
	<path class="st0" d="M38.5,172.3H0v-86c0-23.7,8.6-44.2,25.6-61.1C41,10,59.5,1.6,80.4,0.1L81.7,0v36.8l-1,0.1
		c-10.8,1.5-20.5,6.4-28,14.3c-9.3,9.7-14,21.6-14,35.1L38.5,172.3L38.5,172.3z"/>
	<path class="st0" d="M87.3,172.3H56v-36.6h31.3c13.5,0,25-4.9,34.4-14.5c9.5-9.7,14.2-21.5,14.2-34.9s-4.7-25.4-14-35.1
		C115.1,44,108,39.8,99.7,37.9l-0.9-0.2V0.5l1.3,0.2c18.6,2.5,34.6,10.5,48.9,24.6c17.3,17.1,25.8,37,25.8,61.1s-8.4,44.1-25.7,61
		C132,164,111.2,172.4,87.3,172.3L87.3,172.3z"/>
</g>
</svg>
