<?xml version="1.0" encoding="utf-8"?>
<!-- Generator: Adobe Illustrator 28.3.0, SVG Export Plug-In . SVG Version: 6.00 Build 0)  -->
<svg version="1.1" id="Capa_1" xmlns="http://www.w3.org/2000/svg" xmlns:xlink="http://www.w3.org/1999/xlink" x="0px" y="0px"
	 viewBox="0 0 72.7 71.67" style="enable-background:new 0 0 72.7 71.67;" xml:space="preserve">
<style type="text/css">
	.st0{fill:#0077B3;}
</style>
<g>
	<g>
		<g>
			<path class="st0" d="M16.01,71.67H0V35.89C0,26.04,3.58,17.5,10.63,10.5c6.43-6.32,14.11-9.84,22.83-10.46L33.98,0v15.29
				l-0.43,0.06c-4.49,0.61-8.52,2.66-11.64,5.94c-3.86,4.05-5.82,8.97-5.82,14.6L16.01,71.67z"/>
		</g>
	</g>
	<g>
		<g>
			<path class="st0" d="M36.31,71.67H23.27V56.47h13.04c5.6,0,10.41-2.03,14.29-6.05c3.93-4.06,5.92-8.94,5.92-14.52
				c0-5.64-1.96-10.55-5.82-14.6c-2.85-2.99-5.78-4.74-9.24-5.52l-0.38-0.09V0.2l0.56,0.07c7.74,1.02,14.4,4.37,20.35,10.22
				c7.21,7.1,10.72,15.41,10.72,25.4c0,10.05-3.5,18.35-10.71,25.38C54.87,68.18,46.23,71.67,36.31,71.67z"/>
		</g>
	</g>
</g>
</svg>
