<?xml version="1.0" encoding="utf-8"?>
<!-- Generator: Adobe Illustrator 28.3.0, SVG Export Plug-In . SVG Version: 6.00 Build 0)  -->
<svg version="1.1" id="Capa_1" xmlns="http://www.w3.org/2000/svg" xmlns:xlink="http://www.w3.org/1999/xlink" x="0px" y="0px"
	 viewBox="0 0 390.79 71.67" style="enable-background:new 0 0 390.79 71.67;" xml:space="preserve">
<style type="text/css">
	.st0{fill:#FFFFFF;}
	.st1{fill-rule:evenodd;clip-rule:evenodd;fill:#FFFFFF;}
</style>
<g>
	<g>
		<g>
			<path class="st0" d="M16.01,71.67H0V35.89C0,26.04,3.58,17.5,10.63,10.5c6.43-6.32,14.11-9.84,22.83-10.46L33.98,0v15.29
				l-0.43,0.06c-4.49,0.61-8.52,2.66-11.64,5.94c-3.86,4.05-5.82,8.97-5.82,14.6L16.01,71.67z"/>
		</g>
	</g>
	<g>
		<g>
			<path class="st0" d="M36.31,71.67H23.27V56.47h13.04c5.6,0,10.41-2.03,14.29-6.05c3.93-4.06,5.92-8.94,5.92-14.52
				c0-5.64-1.96-10.55-5.82-14.6c-2.85-2.99-5.78-4.74-9.24-5.52l-0.38-0.09V0.2l0.56,0.07c7.74,1.02,14.4,4.37,20.35,10.22
				c7.21,7.1,10.72,15.41,10.72,25.4c0,10.05-3.5,18.35-10.71,25.38C54.87,68.18,46.23,71.67,36.31,71.67z"/>
		</g>
	</g>
</g>
<g>
	<path class="st0" d="M239.37,58.51v-3.6c-1.24,1.63-2.54,2.69-3.9,3.2c-1.36,0.5-2.83,0.76-4.42,0.76c-1.47,0-2.8-0.22-3.98-0.67
		c-1.18-0.44-2.14-1.04-2.88-1.77c-1.43-1.43-2.39-3.23-2.88-5.38c-0.49-2.15-0.73-4.33-0.73-6.54s0.24-4.39,0.73-6.54
		c0.48-2.15,1.44-3.94,2.88-5.38c0.74-0.74,1.69-1.33,2.88-1.77c1.18-0.44,2.51-0.67,3.98-0.67c1.59,0,3.06,0.25,4.42,0.76
		c1.36,0.5,2.65,1.57,3.9,3.2V17.11h2.96v41.39H239.37z M239.37,44.5c0-1.43-0.09-2.86-0.26-4.27c-0.17-1.41-0.54-2.67-1.1-3.78
		c-0.56-1.1-1.37-2-2.41-2.67c-1.05-0.68-2.42-1.02-4.13-1.02c-1.71,0-3.08,0.34-4.13,1.02c-1.05,0.68-1.85,1.57-2.41,2.67
		c-0.56,1.1-0.93,2.36-1.1,3.78c-0.17,1.42-0.26,2.84-0.26,4.27c0,1.47,0.09,2.91,0.26,4.3c0.17,1.4,0.54,2.65,1.1,3.75
		c0.56,1.1,1.37,2,2.41,2.67c1.05,0.68,2.42,1.02,4.13,1.02c1.71,0,3.08-0.34,4.13-1.02c1.05-0.68,1.85-1.57,2.41-2.67
		c0.56-1.1,0.93-2.35,1.1-3.75C239.29,47.4,239.37,45.97,239.37,44.5z"/>
	<path class="st0" d="M250.31,20.78v-3.66h3.66v3.66H250.31z M250.66,58.51V30.49h2.96v28.02H250.66z"/>
	<path class="st0" d="M282.81,50.54c0,2.56-1.02,4.58-3.05,6.08c-2.03,1.49-4.78,2.24-8.23,2.24c-2.44,0-4.58-0.33-6.42-0.99
		c-1.84-0.66-3.48-1.67-4.91-3.02l2.03-2.03c2.17,2.29,5.23,3.43,9.19,3.43c2.75,0,4.84-0.47,6.28-1.42
		c1.43-0.95,2.15-2.37,2.15-4.27c0-1.47-0.43-2.58-1.28-3.31c-0.85-0.74-2.21-1.2-4.07-1.4l-4.65-0.41
		c-5.62-0.47-8.43-2.91-8.43-7.33c0-2.44,0.92-4.38,2.76-5.81c1.84-1.43,4.29-2.15,7.35-2.15c1.94,0,3.75,0.27,5.44,0.8
		c1.69,0.53,3.15,1.28,4.39,2.22l-1.98,1.98c-2.17-1.59-4.79-2.38-7.85-2.38c-2.33,0-4.1,0.46-5.32,1.39
		c-1.22,0.93-1.83,2.25-1.83,3.99c0,1.47,0.46,2.56,1.37,3.3c0.91,0.73,2.35,1.19,4.33,1.39l4.53,0.41c1.16,0.12,2.25,0.3,3.26,0.55
		c1.01,0.25,1.87,0.66,2.59,1.22c0.72,0.56,1.29,1.29,1.71,2.18C282.6,48.06,282.81,49.19,282.81,50.54z"/>
	<path class="st0" d="M308.39,50.54c0,2.56-1.02,4.58-3.05,6.08c-2.03,1.49-4.78,2.24-8.23,2.24c-2.44,0-4.58-0.33-6.42-0.99
		c-1.84-0.66-3.48-1.67-4.91-3.02l2.03-2.03c2.17,2.29,5.23,3.43,9.19,3.43c2.75,0,4.84-0.47,6.28-1.42
		c1.43-0.95,2.15-2.37,2.15-4.27c0-1.47-0.43-2.58-1.28-3.31c-0.85-0.74-2.21-1.2-4.07-1.4l-4.65-0.41
		c-5.62-0.47-8.43-2.91-8.43-7.33c0-2.44,0.92-4.38,2.76-5.81c1.84-1.43,4.29-2.15,7.35-2.15c1.94,0,3.75,0.27,5.44,0.8
		c1.69,0.53,3.15,1.28,4.39,2.22l-1.98,1.98c-2.17-1.59-4.79-2.38-7.85-2.38c-2.33,0-4.1,0.46-5.32,1.39
		c-1.22,0.93-1.83,2.25-1.83,3.99c0,1.47,0.46,2.56,1.37,3.3c0.91,0.73,2.35,1.19,4.33,1.39l4.53,0.41c1.16,0.12,2.25,0.3,3.26,0.55
		c1.01,0.25,1.87,0.66,2.59,1.22c0.72,0.56,1.29,1.29,1.71,2.18C308.18,48.06,308.39,49.19,308.39,50.54z"/>
	<path class="st0" d="M316.59,45.14c0,3.59,0.77,6.33,2.33,8.24c1.55,1.91,3.82,2.86,6.8,2.86c1.67,0,3.07-0.26,4.21-0.78
		c1.14-0.52,2.32-1.39,3.52-2.59l2.21,1.74c-0.7,0.7-1.41,1.31-2.12,1.85c-0.72,0.53-1.47,0.98-2.27,1.34
		c-0.79,0.36-1.66,0.63-2.59,0.8c-0.93,0.17-1.98,0.26-3.14,0.26c-3.88,0-6.83-1.22-8.87-3.66c-2.03-2.44-3.05-6.01-3.05-10.7
		c0-4.53,0.99-8.06,2.96-10.58c1.98-2.52,4.73-3.78,8.26-3.78c3.53,0,6.28,1.2,8.26,3.6c1.98,2.4,2.96,5.76,2.96,10.06v1.34H316.59z
		 M332.99,41.04c-0.04-0.48-0.1-0.91-0.17-1.28c-0.08-0.37-0.17-0.74-0.29-1.1c-0.12-0.37-0.25-0.76-0.41-1.19
		c-0.62-1.47-1.58-2.63-2.88-3.46c-1.3-0.83-2.76-1.25-4.39-1.25c-1.63,0-3.09,0.42-4.39,1.25c-1.3,0.83-2.26,1.99-2.88,3.46
		c-0.19,0.43-0.34,0.82-0.44,1.19c-0.1,0.37-0.18,0.74-0.26,1.1c-0.08,0.37-0.14,0.79-0.17,1.28c-0.04,0.48-0.08,1.06-0.12,1.71
		h16.51C333.06,42.09,333.03,41.52,332.99,41.04z"/>
	<path class="st0" d="M360.32,58.51V41.12c0-2.71-0.66-4.79-1.98-6.22c-1.32-1.43-3.24-2.15-5.76-2.15c-2.52,0-4.47,0.73-5.84,2.18
		c-1.38,1.45-2.06,3.52-2.06,6.19v17.38h-2.96V30.49h2.96v3.31c2.09-2.44,4.84-3.66,8.26-3.66c3.1,0,5.58,0.89,7.44,2.67
		c1.94,1.86,2.91,4.46,2.91,7.79v17.91H360.32z"/>
	<path class="st0" d="M377.76,66.12c-0.54,1.51-1.18,2.6-1.92,3.26c-0.7,0.66-1.52,1.12-2.47,1.4c-0.95,0.27-1.89,0.41-2.82,0.41
		h-1.4v-2.62h1.1c0.81,0,1.48-0.07,2.01-0.2c0.52-0.14,0.98-0.36,1.37-0.67c0.39-0.31,0.71-0.71,0.96-1.19
		c0.25-0.49,0.51-1.08,0.79-1.77l2.27-6.22l-10.23-28.02h3.26l8.43,24.53l8.43-24.53h3.26L377.76,66.12z"/>
	<path class="st0" d="M121.99,45.44c0,2.57,0.64,4.6,1.92,6.08c1.28,1.48,3.13,2.22,5.57,2.22c1.66,0,3.01-0.24,4.03-0.73
		c1.02-0.48,2.06-1.25,3.11-2.29l3.77,3.53c-0.77,0.77-1.54,1.43-2.29,1.98c-0.75,0.56-1.57,1.02-2.44,1.41
		c-0.87,0.38-1.82,0.67-2.84,0.86c-1.03,0.19-2.18,0.29-3.45,0.29c-1.86,0-3.59-0.26-5.2-0.78c-1.61-0.52-3.01-1.37-4.2-2.55
		c-1.19-1.18-2.14-2.74-2.84-4.67c-0.7-1.93-1.05-4.3-1.05-7.08c0-4.8,1.14-8.5,3.42-11.12c2.28-2.61,5.32-3.92,9.11-3.92
		c1.97,0,3.73,0.35,5.28,1.04c1.55,0.7,2.85,1.66,3.92,2.9c1.06,1.24,1.88,2.73,2.44,4.47c0.56,1.74,0.84,3.66,0.84,5.75v2.61
		H121.99z M135.03,39.14c-0.1-0.56-0.3-1.17-0.61-1.83c-0.46-1.12-1.2-2.02-2.21-2.7c-1.01-0.68-2.21-1.02-3.6-1.02
		s-2.6,0.34-3.63,1.02c-1.03,0.68-1.77,1.58-2.23,2.7c-0.31,0.66-0.5,1.27-0.58,1.83c-0.08,0.56-0.14,1.29-0.17,2.18h13.23
		C135.19,40.42,135.12,39.7,135.03,39.14z"/>
	<path class="st0" d="M169.07,43.69c0,1.12-0.03,2.26-0.09,3.42c-0.06,1.16-0.2,2.29-0.44,3.4c-0.23,1.1-0.57,2.14-1.02,3.11
		c-0.45,0.97-1.04,1.82-1.77,2.55c-0.81,0.81-1.84,1.45-3.08,1.91c-1.24,0.47-2.59,0.7-4.06,0.7c-1.59,0-3-0.24-4.24-0.73
		c-1.24-0.48-2.4-1.36-3.48-2.64v14.92h-5.92V29.01h5.8v3.13c1.12-1.35,2.29-2.27,3.51-2.76c1.22-0.48,2.64-0.73,4.27-0.73
		c1.47,0,2.83,0.23,4.09,0.7c1.26,0.46,2.29,1.1,3.11,1.91c0.73,0.74,1.33,1.59,1.77,2.55c0.44,0.97,0.78,1.99,1.02,3.08
		c0.23,1.08,0.38,2.21,0.44,3.37C169.04,41.43,169.07,42.57,169.07,43.69z M163.15,43.69c0-1.32-0.07-2.56-0.2-3.74
		c-0.14-1.18-0.42-2.22-0.84-3.11c-0.43-0.89-1.04-1.6-1.86-2.12c-0.81-0.52-1.88-0.78-3.19-0.78c-1.36,0-2.43,0.26-3.22,0.78
		c-0.79,0.52-1.41,1.23-1.86,2.12c-0.45,0.89-0.74,1.93-0.87,3.11c-0.14,1.18-0.2,2.43-0.2,3.74s0.07,2.56,0.2,3.74
		c0.14,1.18,0.43,2.23,0.87,3.13c0.44,0.91,1.06,1.63,1.86,2.15c0.79,0.52,1.87,0.78,3.22,0.78c1.32,0,2.38-0.26,3.19-0.78
		c0.81-0.52,1.43-1.24,1.86-2.15c0.43-0.91,0.71-1.95,0.84-3.13C163.08,46.26,163.15,45.01,163.15,43.69z"/>
	<path class="st0" d="M215.38,43.69c0,2.52-0.23,4.71-0.7,6.59c-0.46,1.88-1.39,3.55-2.79,5.02c-0.97,1.01-2.18,1.84-3.63,2.5
		c-1.45,0.66-3.18,0.99-5.2,0.99c-2.01,0-3.74-0.33-5.17-0.99c-1.43-0.66-2.63-1.49-3.6-2.5c-1.39-1.47-2.32-3.14-2.79-5.02
		c-0.46-1.88-0.7-4.07-0.7-6.59c0-2.48,0.23-4.65,0.7-6.53s1.39-3.55,2.79-5.02c0.97-1.01,2.17-1.84,3.6-2.5
		c1.43-0.66,3.15-0.99,5.17-0.99c2.01,0,3.74,0.33,5.2,0.99c1.45,0.66,2.66,1.49,3.63,2.5c1.39,1.47,2.32,3.14,2.79,5.02
		C215.15,39.04,215.38,41.22,215.38,43.69z M209.46,43.69c0-1.63-0.12-3.15-0.35-4.59c-0.23-1.43-0.79-2.59-1.68-3.48
		c-1.12-1.12-2.57-1.68-4.35-1.68c-1.74,0-3.17,0.56-4.3,1.68c-0.89,0.89-1.45,2.05-1.68,3.48c-0.23,1.43-0.35,2.96-0.35,4.59
		c0,1.62,0.12,3.15,0.35,4.59c0.23,1.43,0.79,2.59,1.68,3.48c1.16,1.16,2.59,1.74,4.3,1.74c1.74,0,3.19-0.58,4.35-1.74
		c0.89-0.89,1.45-2.05,1.68-3.48C209.34,46.85,209.46,45.32,209.46,43.69z"/>
	<path class="st1" d="M188.07,34.86c-1.93,0.08-4.61,1.31-5.95,2.72c-1.42,1.5-2.47,3.52-2.47,6.69l-0.03,14.12h-6V43.52
		c0-4.12,1.47-7.64,4.42-10.56c2.9-2.86,6.11-4.31,10.13-4.38L188.07,34.86z"/>
	<path class="st1" d="M113.52,34.86c-1.92,0.08-4.61,1.31-5.95,2.72c-1.43,1.5-2.47,3.52-2.47,6.69l-0.03,14.12h-6V43.52
		c0-4.12,1.47-7.64,4.42-10.56c2.9-2.86,6.12-4.31,10.13-4.38L113.52,34.86z"/>
</g>
</svg>
